<?xml version="1.0" encoding="UTF-8"?>
<svg width="128" height="128" version="1.1" viewBox="0 0 84.557434 85.894989" xmlns="http://www.w3.org/2000/svg">
 <path d="m81.221 84.142s4.1401-7.3953 3.1966-9.0296c-0.82944-1.4366-8.4437-1.0846-8.4437-1.0846s4.1831-7.7568 3.1622-9.525c-1.0051-1.7408-9.6749-1.8226-9.6749-1.8226s10.726-5.3798 11.068-7.3725c0.35889-2.0885-9.4824-9.6358-9.4824-9.6358s10.44-13.588 9.6703-15.442c-0.96601-2.3265-16.818-3.8351-16.818-3.8351s1.7332-17.52-0.39677-18.89c-1.7897-1.1506-16.236 6.9991-16.236 6.9991s-5.9396-14.504-9.2468-14.504c-3.328 0-10.359 14.525-10.359 14.525s-11.671-8.0128-13.832-6.765c-1.9105 1.103-1.2591 15.252-1.2591 15.252z" style="fill-rule:evenodd;opacity:.65"/>
 <path d="m36.287 11.792c-20.04 0-36.286 16.246-36.286 36.286 0 1.9247 0.15111 3.8139 0.43977 5.6575 1.4023 6.7619 6.6874 9.3881 6.6874 9.3881 1.1074 0.90879 2.4837 1.8364 4.0731 2.7523l-0.13074-4e-3s3.3315 18.563 9.4439 18.41c4.6229-0.11575 8.2505-9.4523 14.128-9.2646 5.8724 0.18755 8.2564 9.1509 14.1 9.2129 3.3748 0.0358 6.3071-5.7438 8.1597-10.528 0.58645-0.11985 1.1699-0.24995 1.7492-0.39222 5.5562 5.2542 18.398 10.599 23.871 12.412 0.0748-0.0397 0.13499-0.0861 0.17674-0.14056 1.3957-1.8189-7.9538-16.01-12.983-23.371 1.8385-4.3435 2.8556-9.1191 2.8556-14.132 0-20.04-16.246-36.286-36.286-36.286zm-18.351 23.567a2.9104 2.9104 0 0 1 2.9104 2.9104 2.9104 2.9104 0 0 1 -2.9104 2.9104 2.9104 2.9104 0 0 1 -2.9104 -2.9104 2.9104 2.9104 0 0 1 2.9104 -2.9104z" style="fill-rule:evenodd"/>
 <path d="m36.286 11.792c-20.04 0-36.286 16.246-36.286 36.286 0 17.981 13.079 32.907 30.242 35.785 1.9655 0.32953 3.9844 0.50074 6.0436 0.50074 2.131 0 4.2195-0.18345 6.2497-0.53588 4.6558-0.80822 9.0061-2.5054 12.873-4.9077 10.413 3.4298 26.069 8.2534 27.291 6.6616 1.3957-1.8189-7.9538-16.01-12.983-23.371 1.8384-4.3435 2.8556-9.1191 2.8556-14.132-1e-5 -20.04-16.246-36.286-36.286-36.286zm-18.353 23.567a2.9104 2.9104 0 0 1 2.9104 2.9104 2.9104 2.9104 0 0 1 -2.9104 2.9104 2.9104 2.9104 0 0 1 -2.9104 -2.9104 2.9104 2.9104 0 0 1 2.9104 -2.9104z" style="fill-rule:evenodd;opacity:.55"/>
</svg>
