<?xml version="1.0" encoding="UTF-8"?>
<svg width="128" height="128" version="1.1" viewBox="0 0 33.867 33.867" xmlns="http://www.w3.org/2000/svg">
  <defs>
    <linearGradient id="a" x1="479.79" x2="529.53" y1="233.23" y2="276.31" gradientUnits="userSpaceOnUse">
      <stop stop-color="#fff" offset="0"/>
      <stop stop-color="#fff" stop-opacity="0" offset="1"/>
    </linearGradient>
    <clipPath id="d">
      <path d="m503.51 222.01c-20.04 0-36.286 16.246-36.286 36.286 0 1.9247 0.15113 3.8139 0.43979 5.6575 1.4023 6.7619 6.6874 9.388 6.6874 9.388 1.1074 0.90879 2.4838 1.8364 4.0732 2.7523l-0.13076-4e-3s3.3315 18.563 9.4439 18.41c4.6229-0.11575 8.2504-9.4523 14.128-9.2645 5.8724 0.18755 8.2564 9.1509 14.1 9.2129 3.3748 0.0358 6.3071-5.7438 8.1597-10.528 0.58645-0.11985 1.1699-0.24997 1.7493-0.39224 5.5562 5.2542 18.398 10.599 23.871 12.412 0.0748-0.0397 0.13497-0.0861 0.17672-0.14056 1.3957-1.8189-7.9538-16.01-12.983-23.371 1.8385-4.3435 2.8556-9.1191 2.8556-14.132 0-20.04-16.246-36.286-36.286-36.286z" fill="#009688" fill-rule="evenodd"/>
    </clipPath>
    <filter id="b" x="-.056773" y="-.063615" width="1.1135" height="1.1272" color-interpolation-filters="sRGB">
      <feGaussianBlur stdDeviation="7.4064132"/>
    </filter>
    <filter id="c" x="-.036307" y="-.035699" width="1.0726" height="1.0714" color-interpolation-filters="sRGB">
      <feGaussianBlur stdDeviation="1.2791125"/>
    </filter>
  </defs>
  <path transform="matrix(.36029 0 0 .36029 -166.7 -74.641)" d="m505.07 210.24c-2.5841 0-7.3628 8.6893-9.387 12.604-0.94326 0.20264-1.873 0.44183-2.7874 0.71623-3.3635-2.1846-10.387-6.5011-12.017-5.5604-1.4224 0.82123-1.4244 8.8617-1.3327 12.923-7.653 6.6526-12.492 16.459-12.492 27.395 0 0.0486 1e-3 0.0967 2e-3 0.14521-1.4e-4 0.0423-2e-3 0.0843-2e-3 0.12661 0 1.9247 0.15111 3.8139 0.43977 5.6575 0.0502 0.24199 0.10668 0.47701 0.16639 0.70848 1.6417 8.8803 6.5179 16.625 13.36 21.971 1.5768 4.1532 3.7748 7.9361 6.5474 7.8667 1.4042-0.0352 2.7167-0.9229 4.0282-2.1342 1.8383 0.62849 3.7425 1.1151 5.7004 1.4433 1.9655 0.32953 3.9844 0.50126 6.0436 0.50126 2.131 0 4.219-0.18397 6.2492-0.5364 0.89437-0.15526 1.7768-0.34484 2.6474-0.56431 1.0608 0.73836 2.2186 1.2245 3.56 1.2387 2.0674 0.0219 3.967-2.1417 5.5557-4.9186 0.37421-0.21442 0.7438-0.43632 1.1095-0.66353 9.5437 3.1435 23.482 7.4546 26.689 6.9288 0.13942 0.0475 0.29413 0.10228 0.42529 0.14572 0.0748-0.0397 0.13498-0.0861 0.17674-0.14056 0.1153-0.15025 0.15567-0.38623 0.13281-0.69453 0.0425-0.56284-0.23881-1.4945-0.74414-2.6712 1.157-2.2732 2.9888-6.2272 2.326-7.3753-0.60212-1.0429-4.756-1.1406-7.0006-1.1172-0.25831-0.42009-0.51451-0.83638-0.77979-1.2604 1.1348-2.2818 3.259-6.9145 2.4986-8.2315-0.85243-1.4765-7.1725-1.7568-9.0863-1.8087-0.0527-0.0774-0.10677-0.15701-0.15865-0.23306 1.9544-1.0021 10.336-5.3929 10.639-7.1536 0.27021-1.5725-5.2359-6.2342-7.9763-8.4444-0.0322-0.98027-0.10388-1.9503-0.21239-2.9094 2.7402-3.6703 8.9804-12.269 8.3762-13.724-0.78309-1.886-11.23-3.2182-15.204-3.6613-0.46882-0.6359-0.95819-1.2556-1.4666-1.8588 0.36516-4.3177 1.1956-16.086-0.54467-17.205-1.4954-0.96142-11.73 4.5197-15.087 6.365-0.54444-0.19299-1.095-0.37316-1.6511-0.54054-1.4533-3.3613-5.9887-13.329-8.7436-13.329z" fill-rule="evenodd" filter="url(#c)" opacity=".2"/>
  <path d="m30.892 31.415s1.4916-2.6645 1.1517-3.2533c-0.29884-0.51759-3.0422-0.39077-3.0422-0.39077s1.5071-2.7947 1.1393-3.4318c-0.36213-0.62719-3.4858-0.65667-3.4858-0.65667s3.8645-1.9383 3.9877-2.6563c0.1293-0.75247-3.4164-3.4717-3.4164-3.4717s3.7614-4.8956 3.4842-5.5636c-0.34804-0.83822-6.0594-1.3818-6.0594-1.3818s0.62449-6.3123-0.14295-6.8059c-0.64481-0.41455-5.8497 2.5217-5.8497 2.5217s-2.14-5.2257-3.3315-5.2257c-1.1991 0-3.7323 5.2332-3.7323 5.2332s-4.205-2.8869-4.9835-2.4374c-0.68834 0.3974-0.45364 5.4952-0.45364 5.4952z" fill="#455a64" fill-rule="evenodd" stroke-width=".36029"/>
  <g transform="matrix(.36029 0 0 .36029 -89.23 -31.003)" fill="#80cbc4" fill-rule="evenodd">
    <path d="m318.85 146.9s17.935 25.313 16.04 27.783c-1.8402 2.3983-36.52-9.7855-36.52-9.7855z"/>
    <path d="m252.19 137.18c0 17.981 13.079 32.907 30.242 35.785 1.9655 0.32953 3.9846 0.50105 6.0437 0.50105 2.131 0 4.2192-0.18371 6.2494-0.53614 17.062-2.9619 30.036-17.841 30.036-35.75-1e-5 -20.04-16.246-36.286-36.286-36.286s-36.286 16.246-36.286 36.286z"/>
  </g>
  <path transform="matrix(.095326 0 0 .095326 .31635 6.1124e-5)" d="m154.92 58.094c-75.742 0-137.14 61.401-137.14 137.14 0 7.2743 0.5712 14.415 1.6622 21.383 5.3001 25.557 25.275 35.482 25.275 35.482 4.1853 3.4348 9.3874 6.9409 15.395 10.402l-0.4942-0.016s12.592 70.158 35.693 69.58c17.472-0.4375 31.183-35.725 53.398-35.016 22.195 0.7089 31.205 34.586 53.293 34.82 12.755 0.1352 23.838-21.709 30.84-39.789 2.2165-0.453 4.4217-0.9448 6.6114-1.4825 21 19.858 69.537 40.06 90.221 46.912 0.2827-0.15 0.5101-0.3254 0.6679-0.5312 5.2752-6.8747-30.062-60.51-49.07-88.332 6.9486-16.416 10.793-34.466 10.793-53.414 0-75.742-61.401-137.14-137.14-137.14z" fill-rule="evenodd" filter="url(#b)" opacity=".15"/>
  <path d="m14.704 5.5406c-7.2202 0-13.074 5.8533-13.074 13.074 0 0.69345 0.054451 1.3741 0.15845 2.0384 0.50524 2.4363 2.4094 3.3824 2.4094 3.3824 0.39899 0.32743 0.89489 0.66167 1.4675 0.99163l-0.047112-0.0014s1.2003 6.6881 3.4026 6.633c1.6656-0.0417 2.9726-3.4056 5.0902-3.338 2.1158 0.06758 2.9747 3.297 5.0805 3.3193 1.2159 0.0129 2.2724-2.0694 2.9399-3.7931 0.21129-0.04318 0.4215-0.09006 0.63026-0.14132 2.0018 1.8931 6.6286 3.8187 8.6005 4.4719 0.02695-0.0143 0.04862-0.03102 0.06367-0.05064 0.50286-0.65533-2.8657-5.7683-4.6777-8.4204 0.6624-1.5649 1.0289-3.2856 1.0289-5.092 0-7.2202-5.8533-13.074-13.074-13.074z" fill="#00796b" fill-rule="evenodd" stroke-width=".36029"/>
  <path d="m14.704 5.1565c-7.2202 0-13.074 5.8533-13.074 13.074 0 0.69345 0.054451 1.3741 0.15845 2.0384 0.50524 2.4363 2.4094 3.3824 2.4094 3.3824 0.39899 0.32743 0.89489 0.66164 1.4675 0.99163l-0.047112-0.0014s1.2003 6.6881 3.4026 6.633c1.6656-0.04171 2.9726-3.4056 5.0902-3.338 2.1158 0.06758 2.9747 3.297 5.0805 3.3193 1.2159 0.0129 2.2724-2.0694 2.9399-3.7931 0.21129-0.04318 0.4215-0.09006 0.63026-0.14132 2.0018 1.893 6.6286 3.8187 8.6005 4.4719 0.02695-0.0143 0.04862-0.03102 0.06367-0.05064 0.50286-0.65533-2.8657-5.7683-4.6777-8.4204 0.6624-1.5649 1.0289-3.2856 1.0289-5.092 0-7.2202-5.8533-13.074-13.074-13.074z" fill="#4db6ac" fill-rule="evenodd" stroke-width=".36029"/>
  <path d="m14.704 5.3471c-7.2202 0-13.074 5.8533-13.074 13.074 0 0.69345 0.054451 1.3741 0.15845 2.0384 0.50524 2.4363 2.4094 3.3824 2.4094 3.3824 0.39899 0.32743 0.89489 0.66164 1.4675 0.99163l-0.047112-0.0014s1.2003 6.6881 3.4026 6.633c1.6656-0.0417 2.9726-3.4056 5.0902-3.338 2.1158 0.06758 2.9747 3.297 5.0801 3.3193 1.2159 0.0129 2.2724-2.0694 2.9399-3.7931 0.21129-0.04318 0.4215-0.09006 0.63026-0.14132 2.0018 1.893 6.6286 3.8187 8.6005 4.4719 0.02695-0.0143 0.04863-0.03102 0.06367-0.05064 0.50286-0.65533-2.8657-5.7683-4.6777-8.4204 0.6624-1.5649 1.0289-3.2856 1.0289-5.092 0-7.2202-5.8533-13.074-13.074-13.074z" fill="#009688" fill-rule="evenodd" stroke-width=".36029"/>
  <circle cx="8.0914" cy="14.887" r="1.0486" fill="#eee" fill-rule="evenodd" stroke-width=".36029"/>
  <rect transform="matrix(.36029 0 0 .36029 -166.7 -74.641)" x="461.55" y="203.9" width="101.96" height="98.655" clip-path="url(#d)" fill="url(#a)" fill-rule="evenodd" opacity=".05"/>
</svg>
