<?xml version="1.0" encoding="UTF-8"?>
<svg width="128" height="128" version="1.1" viewBox="0 0 33.867 33.867" xmlns="http://www.w3.org/2000/svg">
  <path d="m 30.892,31.413 c 0,0 1.4916,-2.6644 1.1517,-3.2532 -0.29883,-0.51758 -3.0421,-0.39076 -3.0421,-0.39076 0,0 1.5071,-2.7946 1.1393,-3.4317 -0.36212,-0.62717 -3.4857,-0.65664 -3.4857,-0.65664 0,0 3.8643,-1.9382 3.9876,-2.6562 0.1293,-0.75244 -3.4163,-3.4716 -3.4163,-3.4716 0,0 3.7613,-4.8955 3.484,-5.5634 -0.34803,-0.83819 -6.0592,-1.3817 -6.0592,-1.3817 0,0 0.62443,-6.3121 -0.14295,-6.8057 -0.64479,-0.41454 -5.8495,2.5216 -5.8495,2.5216 0,0 -2.1399,-5.2255 -3.3314,-5.2255 -1.199,0 -3.7321,5.233 -3.7321,5.233 0,0 -4.2048,-2.8868 -4.9834,-2.4373 -0.68831,0.39739 -0.45363,5.495 -0.45363,5.495" style="opacity:1;fill:none;fill-opacity:1;fill-rule:evenodd;stroke:white;stroke-width:0.99987;stroke-dasharray:none;stroke-opacity:1" />
  <path d="m14.703 5.3472c-7.22 0-13.073 5.8531-13.073 13.073 0 0.69343 0.054442 1.3741 0.15844 2.0383 0.50522 2.4362 2.4093 3.3823 2.4093 3.3823 0.39897 0.32742 0.89482 0.66161 1.4674 0.99159l-0.047098-0.0015s1.2003 6.6878 3.4024 6.6327c1.6655-0.0417 2.9725-3.4055 5.09-3.3378 2.1157 0.06757 2.9746 3.2969 5.0799 3.3192 1.2159 0.01289 2.2723-2.0694 2.9398-3.793 0.21128-0.04318 0.42149-0.09006 0.6302-0.14131 2.0018 1.893 6.6284 3.8186 8.6002 4.4718 0.02694-0.01431 0.04863-0.03102 0.06368-0.05064 0.50284-0.65531-2.8656-5.7681-4.6775-8.4201 0.66237-1.5649 1.0288-3.2854 1.0288-5.0915 0-7.22-5.8531-13.073-13.073-13.073zm-6.6115 8.4907a1.0486 1.0486 0 0 1 1.0486 1.0486 1.0486 1.0486 0 0 1-1.0486 1.0486 1.0486 1.0486 0 0 1-1.0486-1.0486 1.0486 1.0486 0 0 1 1.0486-1.0486z" style="fill-rule:evenodd;stroke:white;stroke-opacity:1;fill:none" />
  <path d="m14.703 5.3472c-7.22 0-13.073 5.8531-13.073 13.073 0 6.4782 4.7121 11.856 10.896 12.893 0.70813 0.11873 1.4355 0.18041 2.1774 0.18041 0.76775 0 1.5202-0.06608 2.2516-0.19307 1.6774-0.29118 3.2447-0.90264 4.6379-1.7681 3.7516 1.2357 9.3921 2.9735 9.8324 2.4 0.50284-0.65531-2.8656-5.7681-4.6775-8.4201 0.66234-1.5649 1.0288-3.2854 1.0288-5.0915-3e-6 -7.22-5.8531-13.073-13.073-13.073zm-6.6122 8.4907a1.0486 1.0486 0 0 1 1.0486 1.0486 1.0486 1.0486 0 0 1-1.0486 1.0486 1.0486 1.0486 0 0 1-1.0486-1.0486 1.0486 1.0486 0 0 1 1.0486-1.0486z" style="fill-rule:evenodd;opacity:1;stroke:white;stroke-opacity:1;fill:none" />
</svg>
