<?xml version="1.0" encoding="UTF-8"?>
<svg version="1.1" viewBox="0 0 14 14" xmlns="http://www.w3.org/2000/svg">
  <path d="m7 0c-3.866 0-7 3.134-7 7 0 3.866 3.134 7 7 7 3.866 0 7-3.0493 7-6.9153s-3.134-7.0847-7-7.0847zm-2 4c0.558 0 1.031 0.473 1.031 1.031v0.61307c0 0.558-0.473 1-1.031 1s-1-0.442-1-1v-0.61307c0-0.558 0.442-1.031 1-1.031zm4 0c0.558 0 1 0.473 1 1.031v0.63002c0 0.558-0.442 1-1 1s-1-0.442-1-1v-0.63002c0-0.558 0.442-1.031 1-1.031zm-6.5 4.1157c2 1.304 6.956 1.304 9 0-0.70196 2.8903-2.5245 3.853-4.499 3.8533-1.975 2.17e-4 -3.7981-1.1706-4.501-3.8533z" fill="#474747"/>
</svg>
