<?xml version="1.0" encoding="UTF-8"?>
<svg version="1.1" viewBox="0 0 18 18" xmlns="http://www.w3.org/2000/svg">
  <path d="m0 8h2v2h-2v-2"/>
  <path d="m8 0h2v4h-2v-4"/>
  <path d="m12 8v2 2h2 2v-2h-2v-2h-2z"/>
  <path d="m16 10h2v-2h-2z"/>
  <path d="m12 0v6h6v-6h-6zm2 2h2v2h-2v-2z"/>
  <path d="m0 0v6h6v-6h-6zm2 2h2v2h-2v-2z"/>
  <path d="m0 12v6h6v-6h-6zm2 2h2v2h-2v-2z"/>
  <path d="m8 6v2h-2-2v2h2 2 2v-2-2h-2z"/>
  <path d="m8 12v2h2 2v-2h-2-2z"/>
  <path d="m8 16h2v2h-2v-2"/>
  <path d="m12 14v2 2h2 2v-2h-2v-2h-2z"/>
  <path d="m16 14h2v2h-2v-2"/>
</svg>
