<?xml version="1.0" encoding="UTF-8"?>
<svg height="16px" viewBox="0 0 16 16" width="16px" xmlns="http://www.w3.org/2000/svg">
    <g fill="#222222">
        <path d="m 4 11.992188 c -2.199219 0 -4 -1.800782 -4 -4 c 0 -2.199219 1.800781 -4 4 -4 h 3 c 2.199219 0 4 1.800781 4 4 c 0 1.640624 -0.996094 3.070312 -2.421875 3.679687 l -0.785156 -1.839844 c 0.710937 -0.304687 1.207031 -1 1.207031 -1.839843 c 0 -1.125 -0.875 -2 -2 -2 h -3 c -1.125 0 -2 0.875 -2 2 s 0.875 2 2 2 z m 0 0"/>
        <path d="m 9 13.992188 c -2.199219 0 -4 -1.800782 -4 -4 c 0 -1.621094 0.964844 -3.03125 2.367188 -3.65625 l 0.816406 1.828124 c -0.699219 0.3125 -1.183594 1 -1.183594 1.828126 c 0 1.125 0.875 2 2 2 h 3 c 1.125 0 2 -0.875 2 -2 s -0.875 -2 -2 -2 v -2 c 2.199219 0 4 1.800781 4 4 c 0 2.199218 -1.800781 4 -4 4 z m 0 0"/>
    </g>
</svg>
