<?xml version="1.0" encoding="UTF-8"?>
<svg xmlns="http://www.w3.org/2000/svg" height="16px" viewBox="0 0 16 16" width="16px"><path d="m 6.570312 0.0625 c -3.578124 0 -6.4999995 2.925781 -6.4999995 6.5 c 0 3.578125 2.9218755 6.5 6.4999995 6.5 c 1.429688 0 2.757813 -0.464844 3.832032 -1.253906 l 2.972656 2.972656 c 0.957031 0.9375 2.363281 -0.5 1.40625 -1.4375 l -2.960938 -2.957031 c 0.785157 -1.074219 1.25 -2.394531 1.25 -3.824219 c 0 -3.574219 -2.921874 -6.5 -6.5 -6.5 z m 0 2 c 2.496094 0 4.5 2.003906 4.5 4.5 c 0 2.5 -2.003906 4.5 -4.5 4.5 c -2.496093 0 -4.5 -2 -4.5 -4.5 c 0 -2.496094 2.003907 -4.5 4.5 -4.5 z m 0 0" fill="#222222"/></svg>
