<?xml version="1.0" encoding="UTF-8"?>
<svg xmlns="http://www.w3.org/2000/svg" width="16" height="16" version="1.0">
  <path d="M8 1a1 1 0 0 0-1 1v.01C5.235 2.465 4.002 4.177 4 6c0 0 0 5-1.66 5.621-.017.01-.024.031-.04.043a.725.725 0 0 0-.161.176c-.018.026-.039.047-.053.076A.738.738 0 0 0 2 12.25c0 .415.334.75.75.75h10.5c.415 0 .75-.335.75-.75a.738.738 0 0 0-.086-.334c-.014-.029-.035-.05-.053-.076a.725.725 0 0 0-.162-.176c-.015-.012-.022-.032-.039-.043C12 11.001 12 6 12 6c-.002-1.823-1.235-3.535-3-3.99V2a1 1 0 0 0-1-1ZM6.066 14A2 2 0 0 0 8 15.5 2 2 0 0 0 9.936 14Z" />
</svg>