<?xml version="1.0" encoding="UTF-8"?>
<svg version="1.1" viewBox="0 0 23.568 23.711" xmlns="http://www.w3.org/2000/svg">
  <path d="m10 19.211c2.33 0 4.3-1.46 5.11-3.5h-10.22c0.8 2.04 2.78 3.5 5.11 3.5m-3.5-6.5c0.82843 0 1.5-0.67157 1.5-1.5s-0.67157-1.5-1.5-1.5-1.5 0.67157-1.5 1.5 0.67157 1.5 1.5 1.5m7 0c0.82843 0 1.5-0.67157 1.5-1.5s-0.67157-1.5-1.5-1.5-1.5 0.67157-1.5 1.5 0.67157 1.5 1.5 1.5m-3.5 9c-4.4183 0-8-3.5817-8-8s3.5817-8 8-8c1.4367-0.016553 1.4581-1.9613 0-2-5.53 0-10 4.5-10 10 0 5.5228 4.4772 10 10 10s10-4.4772 10-10c0-1.0544-2-1.0324-2 0 0 4.4183-3.5817 8-8 8"/>
  <path d="m18.908 0c-0.33046 0-0.61972 0.12233-0.80078 0.36133-0.18106 0.239-0.25586 0.56747-0.25586 0.97266v2.6523h-2.2715c-0.38896 0-0.70598 0.064394-0.94727 0.21875-0.26371 0.15646-0.38672 0.4669-0.38672 0.83789 0 0.36179 0.12302 0.66715 0.38086 0.83398l0.001953 0.0019531h0.001953c0.24918 0.15228 0.56865 0.21875 0.94922 0.21875h2.2715v2.6543c0 0.40519 0.074767 0.73218 0.25586 0.9707 0.18109 0.23852 0.46892 0.35944 0.79883 0.36133 0.32038 0.001837 0.60667-0.12152 0.78906-0.35937 0.18239-0.23785 0.26374-0.56552 0.26758-0.9707v-0.0019531-2.6543h2.2559c0.41061 0 0.74047-0.073348 0.98242-0.25391s0.36719-0.46969 0.36719-0.80078c0-0.33109-0.12524-0.62218-0.36719-0.80273s-0.57181-0.25391-0.98242-0.25391h-2.2559v-2.6523c0-0.38896-0.064393-0.70598-0.21875-0.94727-0.15646-0.26371-0.46495-0.38672-0.83594-0.38672z"/>
</svg>
