<?xml version="1.0" encoding="UTF-8"?>
<svg xmlns="http://www.w3.org/2000/svg" height="16px" viewBox="0 0 16 16" width="16px"><path d="m 8 0 c -0.828125 0 -1.5 0.671875 -1.5 1.5 c 0 0.078125 0.007812 0.152344 0.019531 0.230469 c -2.089843 0.648437 -3.515625 2.582031 -3.519531 4.769531 v 4.5 h -0.5 c -0.554688 0 -1 0.445312 -1 1 s 0.445312 1 1 1 h 11 c 0.554688 0 1 -0.445312 1 -1 s -0.445312 -1 -1 -1 h -0.5 v -4.5 c 0 -2.191406 -1.425781 -4.125 -3.519531 -4.773438 c 0.011719 -0.078124 0.019531 -0.152343 0.019531 -0.226562 c 0 -0.828125 -0.671875 -1.5 -1.5 -1.5 z m -2 14 c 0 0.714844 0.382812 1.375 1 1.734375 c 0.617188 0.355469 1.382812 0.355469 2 0 c 0.617188 -0.359375 1 -1.019531 1 -1.734375 z m 0 0" fill="#222222"/></svg>
