<?xml version="1.0" encoding="UTF-8"?>
<svg version="1.1" viewBox="0 0 16 12" xmlns="http://www.w3.org/2000/svg">
  <path d="m2.9174 0v5.9297c0 1.7552 1.269 3.13 2.399 4.1415a15.807 15.807 0 0 0 2.2533 1.6705l0.4371 0.25836 0.43371-0.2626s1.1182-0.67768 2.2448-1.6959c1.1266-1.0199 2.3973-2.3803 2.3973-4.1118v-5.9297zm1.6942 1.6942h6.7768v4.2355c0 0.77933-0.8471 1.9593-1.8382 2.8547-0.7734 0.69886-1.2512 0.97755-1.5553 1.1741-0.30326-0.19144-0.77764-0.45997-1.5485-1.1504-0.98772-0.88352-1.8348-2.0483-1.8348-2.8784z" color="#bebebe" fill="#474747" font-family="sans-serif" font-weight="400" overflow="visible" stroke-width=".8471" style="font-feature-settings:normal;font-variant-alternates:normal;font-variant-caps:normal;font-variant-ligatures:normal;font-variant-numeric:normal;font-variant-position:normal;isolation:auto;mix-blend-mode:normal;shape-padding:0;text-decoration-color:#000000;text-decoration-line:none;text-decoration-style:solid;text-indent:0;text-orientation:mixed;text-transform:none" white-space="normal"/>
  <path d="m5.8658 3.0501v2.8457c0 0.25398 0.53712 1.1674 1.3118 1.8675 0.40906 0.36994 0.5236 0.41262 0.8224 0.62249 0.29879-0.20916 0.41333-0.25255 0.8224-0.62249 0.77544-0.70003 1.3118-1.6135 1.3118-1.8675v-2.8457z" color="#bebebe" fill="#474747" overflow="visible" stroke-width=".71142"/>
</svg>
