<?xml version="1.0" encoding="UTF-8"?>
<svg version="1.1" viewBox="0 0 16 21" xmlns="http://www.w3.org/2000/svg">
  <path d="m2 1.25c-1.2632 0-1.9836 0.78574-2 2v15.75c0 1.1966 0.68685 1.9999 2 2h12c1.2965 0 2-0.73406 2-2v-11.5c4.8e-4 -0.1991-0.07822-0.39022-0.21875-0.53125l-5.5-5.5c-0.14103-0.14053-0.33215-0.21923-0.53125-0.21875zm-0.5 1.5h7.75v4.75c2.7e-5 0.27613 0.22387 0.49997 0.5 0.5h4.75v11.5h-13z"/>
  <path d="m4.6934 13.773a1.3501 1.3501 0 0 0 -1.3301 1.3691v1.377a1.3506 1.3506 0 1 0 2.7012 0v-1.377a1.3501 1.3501 0 0 0 -1.3711 -1.3691z"/>
  <path d="m11.115 13.773a1.3501 1.3501 0 0 0 -1.3281 1.3691v1.377a1.3501 1.3501 0 1 0 2.6992 0v-1.377a1.3501 1.3501 0 0 0 -1.3711 -1.3691z"/>
  <path d="m7.9238 9.4824c-1.538 0-2.7575 0.64459-3.5059 1.6621-0.74838 1.0175-1.0547 2.347-1.0547 3.7617a0.65006 0.65006 0 1 0 1.2988 0c0-1.2218 0.27974-2.2792 0.80273-2.9902 0.52299-0.71108 1.2596-1.1348 2.459-1.1348 1.1288 0 1.8725 0.42826 2.4121 1.1504 0.53958 0.72213 0.8418 1.78 0.8418 2.9746a0.65039 0.65039 0 1 0 1.3008 0c0-1.4089-0.34141-2.7372-1.0996-3.752s-1.9667-1.6719-3.4551-1.6719z"/>
</svg>
