<?xml version="1.0" encoding="UTF-8"?>
<svg version="1.1" viewBox="0 0 16 21" xmlns="http://www.w3.org/2000/svg">
  <path d="m6.4377 10.018c-0.24578 0.01348-0.43806 0.21689-0.43771 0.46303v5.5564c8.196e-4 0.38151 0.43677 0.59842 0.74158 0.36898l4.074-2.7782c0.24595-0.18526 0.24595-0.55451 0-0.73977l-4.074-2.7782c-0.08725-0.0656-0.19487-0.09827-0.30387-0.09225z"/>
  <path d="m2 1.25c-1.2632 0-1.9836 0.78574-2 2v15.75c0 1.1966 0.68685 1.9999 2 2h12c1.2965 0 2-0.73406 2-2v-11.5c4.8e-4 -0.1991-0.07822-0.39022-0.21875-0.53125l-5.5-5.5c-0.14103-0.14053-0.33215-0.21923-0.53125-0.21875zm-0.5 1.5h7.75v4.75c2.7e-5 0.27613 0.22387 0.49997 0.5 0.5h4.75v11.5h-13z"/>
</svg>
