<?xml version="1.0" encoding="UTF-8" standalone="no"?>
<svg
   xmlns:dc="http://purl.org/dc/elements/1.1/"
   xmlns:cc="http://creativecommons.org/ns#"
   xmlns:rdf="http://www.w3.org/1999/02/22-rdf-syntax-ns#"
   xmlns:svg="http://www.w3.org/2000/svg"
   xmlns="http://www.w3.org/2000/svg"
   width="16"
   version="1.1"
   id="svg7384"
   height="12">
  <metadata
     id="metadata90">
    <rdf:RDF>
      <cc:Work
         rdf:about="">
        <dc:format>image/svg+xml</dc:format>
        <dc:type
           rdf:resource="http://purl.org/dc/dcmitype/StillImage" />
        <dc:title>Gnome Symbolic Icon Theme</dc:title>
      </cc:Work>
    </rdf:RDF>
  </metadata>
  <title
     id="title9167">Gnome Symbolic Icon Theme</title>
  <defs
     id="defs7386" />
  <g
     transform="translate(-181.0002,-241)"
     style="display:inline"
     id="layer9">
    <path
       style="color:#bebebe;display:inline;overflow:visible;visibility:visible;fill:#bebebe;fill-opacity:1;fill-rule:nonzero;stroke:none;stroke-width:1.76307714;marker:none"
       id="rect4063"
       d="m 188.13566,241.5 c -1.44483,0 -2.63542,1.19893 -2.63542,2.65384 v 2.65385 h -0.87847 c -0.48668,0 -0.87847,0.39453 -0.87847,0.88462 V 248.16225 253 h 4.39236 1.75695 4.39235 v -4.83775 -0.46994 c 0,-0.49009 -0.39179,-0.88462 -0.87846,-0.88462 h -0.87848 v -2.65385 c 0,-1.45491 -1.19059,-2.65384 -2.63541,-2.65384 z m 0,1.76922 h 1.75695 c 0.50187,0 0.87848,0.37925 0.87848,0.88462 v 2.65385 h -3.5139 v -2.65385 c 0,-0.50537 0.3766,-0.88462 0.87847,-0.88462 z" />
  </g>
  <g
     transform="translate(-181.0002,-241)"
     style="display:inline"
     id="layer10" />
  <g
     transform="translate(-181.0002,-241)"
     id="layer11" />
  <g
     transform="translate(-181.0002,-241)"
     style="display:inline"
     id="layer13" />
  <g
     transform="translate(-181.0002,-241)"
     id="layer14" />
  <g
     transform="translate(-181.0002,-241)"
     style="display:inline"
     id="layer15" />
  <g
     transform="translate(-181.0002,-241)"
     style="display:inline"
     id="g71291" />
  <g
     transform="translate(-181.0002,-241)"
     style="display:inline"
     id="g4953" />
  <g
     transform="translate(-181.0002,-241)"
     style="display:inline"
     id="layer12" />
</svg>
