<?xml version="1.0" standalone="no"?>
<!DOCTYPE svg PUBLIC "-//W3C//DTD SVG 20010904//EN"
 "http://www.w3.org/TR/2001/REC-SVG-20010904/DTD/svg10.dtd">
<svg version="1.0" xmlns="http://www.w3.org/2000/svg"
 width="240.000000pt" height="240.000000pt" viewBox="0 0 240.000000 240.000000"
 preserveAspectRatio="xMidYMid meet">

<g transform="translate(0.000000,240.000000) scale(0.100000,-0.100000)"
fill="#000000" stroke="none">
<path d="M255 2206 c-16 -7 -39 -23 -50 -36 -20 -22 -20 -38 -23 -966 -2 -832
0 -948 13 -974 33 -64 -21 -61 1026 -58 l951 3 29 33 29 32 0 953 c0 1057 5
983 -66 1013 -48 20 -1863 20 -1909 0z m1879 -82 c14 -14 16 -112 16 -933 0
-700 -3 -920 -12 -929 -9 -9 -229 -12 -929 -12 -821 0 -919 2 -933 16 -14 14
-16 112 -16 929 l0 914 22 15 c20 14 125 16 930 16 811 0 908 -2 922 -16z"/>
<path d="M696 1728 c-3 -7 -7 -30 -11 -50 l-6 -38 175 0 c195 0 180 -6 188 70
l3 25 -173 3 c-133 2 -173 0 -176 -10z"/>
<path d="M1115 1728 c-2 -7 -18 -89 -35 -183 -17 -93 -33 -182 -36 -197 -6
-28 -5 -28 46 -28 60 0 54 -10 89 159 l26 126 89 3 c49 2 93 -1 97 -5 6 -6
-111 -645 -146 -800 -5 -20 -12 -23 -59 -23 -60 0 -62 -1 -72 -80 l-7 -50 186
0 c102 0 188 3 190 8 3 4 8 33 12 65 l7 57 -62 0 c-54 0 -61 2 -56 18 3 9 37
186 76 392 39 206 75 385 80 398 9 20 16 22 99 22 49 0 92 -3 94 -7 3 -5 -6
-62 -19 -128 -13 -66 -24 -126 -24 -132 0 -9 18 -13 55 -13 30 0 55 3 55 8 0
4 16 92 35 196 19 104 35 193 35 198 0 4 -169 8 -375 8 -292 0 -377 -3 -380
-12z"/>
<path d="M630 1386 c0 -7 -3 -28 -6 -45 l-6 -31 176 0 c143 0 176 3 176 14 0
7 3 28 6 45 l7 31 -177 0 c-143 0 -176 -3 -176 -14z"/>
<path d="M570 1056 c0 -7 -3 -28 -6 -45 l-6 -31 326 0 326 0 0 23 c0 12 3 32
6 45 l6 22 -326 0 c-270 0 -326 -2 -326 -14z"/>
<path d="M506 709 c-12 -63 -30 -59 259 -59 l265 0 5 28 c15 69 42 62 -255 62
l-267 0 -7 -31z"/>
</g>
</svg>
