<?xml version="1.0" encoding="UTF-8" standalone="no"?>
<svg
   xmlns:dc="http://purl.org/dc/elements/1.1/"
   xmlns:cc="http://creativecommons.org/ns#"
   xmlns:rdf="http://www.w3.org/1999/02/22-rdf-syntax-ns#"
   xmlns:svg="http://www.w3.org/2000/svg"
   xmlns="http://www.w3.org/2000/svg"
   xmlns:sodipodi="http://sodipodi.sourceforge.net/DTD/sodipodi-0.dtd"
   xmlns:inkscape="http://www.inkscape.org/namespaces/inkscape"
   version="1.0"
   width="3000.000000pt"
   height="3000.000000pt"
   viewBox="0 0 3000.000000 3000.000000"
   preserveAspectRatio="xMidYMid meet"
   id="svg85"
   sodipodi:docname="dino-rtt-active-symbolic-1.svg"
   inkscape:version="0.92.5 (2060ec1f9f, 2020-04-08)">
  <defs
     id="defs89" />
  <sodipodi:namedview
     pagecolor="#ffffff"
     bordercolor="#666666"
     borderopacity="1"
     objecttolerance="10"
     gridtolerance="10"
     guidetolerance="10"
     inkscape:pageopacity="0"
     inkscape:pageshadow="2"
     inkscape:window-width="1920"
     inkscape:window-height="1016"
     id="namedview87"
     showgrid="false"
     inkscape:zoom="0.2095"
     inkscape:cx="2984.8719"
     inkscape:cy="1857.0702"
     inkscape:window-x="0"
     inkscape:window-y="27"
     inkscape:window-maximized="1"
     inkscape:current-layer="svg85" />
  <metadata
     id="metadata69">
Created by potrace 1.16, written by Peter Selinger 2001-2019
<rdf:RDF>
  <cc:Work
     rdf:about="">
    <dc:format>image/svg+xml</dc:format>
    <dc:type
       rdf:resource="http://purl.org/dc/dcmitype/StillImage" />
    <dc:title></dc:title>
  </cc:Work>
</rdf:RDF>
</metadata>
  <g
     transform="matrix(0.10726047,0,0,-0.109779,-3033.332,3164.3833)"
     id="g83"
     style="fill:#000000;stroke:none">
    <path
       d="m 42037.51,27399.966 -11486.411,-5 -152.206,-38 c -177.572,-43 -182.646,-45 -310.497,-108 -241.5,-117 -433.278,-274 -584.468,-476 -122.779,-163 -169.455,-274 -205.985,-489 l -21.308,-124 -5.074,-11148 c -3.044,-6131.0001 -5.073,-11300.0001 -6.088,-11487.0001 -2.03,-566 43.632,-822 188.734,-1061 182.646,-302 473.866,-497 959.907,-641 l 126.838,-38 11577.735,-5 c 6368.261,-3 11655.867,-2 11750.234,2 135.97,5 192.793,12 268.896,32 222.219,58 404.865,147 639.261,311 116.691,81 148.146,114 241.499,252 121.764,180 185.69,313 231.352,482 l 24.353,93 v 11638.0001 11638 l -24.353,93 c -149.162,561 -481.983,866 -1146.612,1046 -132.926,36 -132.926,36 -356.16,37 -122.779,1 -5392.12,-1 -11709.647,-4 z m 11628.471,-1030 c 89.294,-5 186.705,-16 217.146,-24 204.97,-55 295.277,-175 340.939,-451 13.192,-79 15.221,-1439 15.221,-11298 0,-7670.0001 -4.059,-11232.0001 -11.162,-11285.0001 -30.441,-227 -105.529,-368 -225.264,-428 -62.911,-32 -169.455,-59 -288.174,-73 -128.867,-16 -22764.811,-16 -22874.399,-1 -363.262,51 -478.938,162 -517.497,495 -6.088,60 -10.147,3849 -10.147,11355.0001 0,9910 2.03,11273 15.22,11334 34.501,161 192.793,327 338.91,357 31.456,6 63.926,15 72.044,20 21.309,12 22720.164,11 22927.163,-1 z"
       id="path71"
       inkscape:connector-curvature="0"
       style="stroke-width:1.0073235" />
  </g>
  <path
     style="fill:#000000;stroke-width:3.57995224"
     d="m 358.89119,2740.0783 c -18.143,-5.2393 -28.0989,-13.0177 -32.3799,-25.2982 -2.7127,-7.7818 -3.8439,-347.4967 -3.8344,-1151.6134 0.013,-1109.60763 0.1959,-1140.8749 6.7372,-1151.6019 3.6981,-6.06451 12.4245,-13.73147 19.3918,-17.03771 11.7916,-5.59545 91.5091,-5.94714 1152.27231,-5.08341 942.0921,0.7671 1141.2081,1.75638 1148.8576,5.70793 5.0892,2.629 12.3386,9.8784 16.1098,16.10978 6.7175,11.10005 6.8566,34.53599 6.8566,1155.75701 v 1144.4271 l -7.4819,10.1074 c -16.7284,22.5988 81.2488,20.7905 -1161.3726,21.4337 -728.07611,0.3767 -1137.38021,-0.6628 -1145.15651,-2.9083 z m 923.19951,-495.2259 c 0,-0.9485 4.0274,-26.2655 8.9499,-56.2602 4.9224,-29.9948 8.9499,-56.6054 8.9499,-59.1348 0,-3.7127 -64.8503,-4.599 -336.51565,-4.599 -185.08346,0 -336.53096,1.2082 -336.54986,2.685 -0.019,1.4767 -4.0309,26.0441 -8.9155,54.5942 -4.8845,28.5502 -8.8965,54.7286 -8.9154,58.1743 -0.033,5.9224 18.3636,6.2649 336.48106,6.2649 185.08355,0 336.51555,-0.776 336.51555,-1.7244 z m 574.9862,-66.2947 c 6.2993,-36.426 12.4292,-72.2703 13.622,-79.654 l 2.1685,-13.4247 h -77.4097 -77.4096 l 2.2368,-11.6349 c 1.2302,-6.3992 45.6012,-237.7329 98.6022,-514.0749 53.0009,-276.342 97.034,-503.1087 97.8512,-503.9259 0.8173,-0.8172 56.1459,-1.0617 122.9526,-0.5433 l 121.4666,0.9426 -33.0291,168.2578 c -18.166,92.5418 -33.11,170.2715 -33.2089,172.7327 -0.1381,3.4362 16.3802,4.475 71.1656,4.475 h 71.3452 l 3.7795,-18.7948 c 6.2689,-31.1736 89.8069,-490.38182 89.8069,-493.66822 0,-1.6775 -213.8574,-3.0424 -475.2386,-3.0331 l -475.2387,0.018 -46.2053,255.05452 c -25.4129,140.28 -46.3556,256.6656 -46.5394,258.6345 -0.2087,2.2353 24.0813,3.946 64.6649,4.5544 51.5914,0.7735 66.0214,-0.048 69.9558,-3.9824 2.8343,-2.8343 19.1625,-75.3026 38.1305,-169.2323 18.2456,-90.3513 33.9951,-167.0945 34.9991,-170.5401 1.6914,-5.8053 10.6067,-6.265 121.5125,-6.265 65.8279,0 119.6258,1.2082 119.5509,2.685 -0.075,1.4767 -44.8482,233.0548 -99.4961,514.6181 l -99.36,511.9332 -70.5516,0.9707 c -38.8033,0.533 -70.5516,2.1456 -70.5516,3.5826 0,1.437 -6.4438,36.4401 -14.3197,77.7847 -7.8759,41.3446 -14.3198,76.3932 -14.3198,77.8859 0,1.4925 107.4631,2.2997 238.8069,1.7934 l 238.807,-0.9203 z m -358.7293,-349.9403 c 3.3201,-16.1116 16.44,-103.7731 16.44,-109.8445 0,-5.059 -39.6655,-5.609 -404.4664,-5.609 H 705.85479 l -1.8118,8.0549 c -2.8384,12.6185 -19.8043,107.3324 -19.8043,110.5592 0,4.3104 56.8542,5.0538 451.68451,5.9062 l 360.3958,0.7781 z m -298.5958,-406.9016 c 0,-0.8097 4.0868,-27.6 9.0818,-59.5341 4.9949,-31.934 8.5484,-58.5952 7.8965,-59.247 -0.6519,-0.6519 -97.9218,-2.3103 -216.1554,-3.6855 -163.05081,-1.8963 -215.59771,-1.4846 -217.56871,1.7046 -2.1441,3.4692 -10.7078,46.7629 -21.877,110.5991 l -2.0358,11.6349 h 220.32926 c 121.18115,0 220.32935,-0.6625 220.32935,-1.472 z m 82.3389,-415.5269 c 0,-0.9484 4.0274,-26.26542 8.9499,-56.26022 4.9224,-29.9946 8.9499,-56.6053 8.9499,-59.1347 0,-3.6958 -43.4835,-4.599 -221.4046,-4.599 H 857.18139 l -9.5698,58.1743 c -5.2634,31.9957 -9.5395,59.38232 -9.5025,60.85902 0.073,2.8832 443.98161,3.8436 443.98161,0.9606 z"
     id="path97"
     inkscape:connector-curvature="0" />
</svg>
