<?xml version="1.0" encoding="UTF-8"?>
<svg width="92.245mm" height="94.003mm" version="1.1" viewBox="0 0 92.245758 94.003808" xmlns="http://www.w3.org/2000/svg" xmlns:xlink="http://www.w3.org/1999/xlink">
 <defs>
  <linearGradient id="a" x1="479.79" x2="529.53" y1="233.23" y2="276.31" gradientUnits="userSpaceOnUse">
   <stop style="stop-color:#fff" offset="0"/>
   <stop style="stop-color:#fff;stop-opacity:0" offset="1"/>
  </linearGradient>
  <clipPath id="d">
   <path d="m503.51 222.01c-20.04 0-36.286 16.246-36.286 36.286 0 1.9247 0.15113 3.8139 0.43979 5.6575 1.4023 6.7619 6.6874 9.388 6.6874 9.388 1.1074 0.90879 2.4838 1.8364 4.0732 2.7523l-0.13076-4e-3s3.3315 18.563 9.4439 18.41c4.6229-0.11575 8.2504-9.4523 14.128-9.2645 5.8724 0.18755 8.2564 9.1509 14.1 9.2129 3.3748 0.0358 6.3071-5.7438 8.1597-10.528 0.58645-0.11985 1.1699-0.24997 1.7493-0.39224 5.5562 5.2542 18.398 10.599 23.871 12.412 0.0748-0.0397 0.13497-0.0861 0.17672-0.14056 1.3957-1.8189-7.9538-16.01-12.983-23.371 1.8385-4.3435 2.8556-9.1191 2.8556-14.132 0-20.04-16.246-36.286-36.286-36.286z" style="fill-rule:evenodd;fill:#009688"/>
  </clipPath>
  <filter id="b" x="-.056773" y="-.063615" width="1.1135" height="1.1272" style="color-interpolation-filters:sRGB">
   <feGaussianBlur stdDeviation="7.4064132"/>
  </filter>
  <filter id="c" x="-.036307" y="-.035699" width="1.0726" height="1.0714" style="color-interpolation-filters:sRGB">
   <feGaussianBlur stdDeviation="1.2791125"/>
  </filter>
 </defs>
 <path transform="matrix(1 0 0 1 -463.58 -207.17)" d="m505.07 210.24c-2.5841 0-7.3628 8.6893-9.387 12.604-0.94326 0.20264-1.873 0.44183-2.7874 0.71623-3.3635-2.1846-10.387-6.5011-12.017-5.5604-1.4224 0.82123-1.4244 8.8617-1.3327 12.923-7.653 6.6526-12.492 16.459-12.492 27.395 0 0.0486 1e-3 0.0967 2e-3 0.14521-1.4e-4 0.0423-2e-3 0.0843-2e-3 0.12661 0 1.9247 0.15111 3.8139 0.43977 5.6575 0.0502 0.24199 0.10668 0.47701 0.16639 0.70848 1.6417 8.8803 6.5179 16.625 13.36 21.971 1.5768 4.1532 3.7748 7.9361 6.5474 7.8667 1.4042-0.0352 2.7167-0.9229 4.0282-2.1342 1.8383 0.62849 3.7425 1.1151 5.7004 1.4433 1.9655 0.32953 3.9844 0.50126 6.0436 0.50126 2.131 0 4.219-0.18397 6.2492-0.5364 0.89437-0.15526 1.7768-0.34484 2.6474-0.56431 1.0608 0.73836 2.2186 1.2245 3.56 1.2387 2.0674 0.0219 3.967-2.1417 5.5557-4.9186 0.37421-0.21442 0.7438-0.43632 1.1095-0.66353 9.5437 3.1435 23.482 7.4546 26.689 6.9288 0.13942 0.0475 0.29413 0.10228 0.42529 0.14572 0.0748-0.0397 0.13498-0.0861 0.17674-0.14056 0.1153-0.15025 0.15567-0.38623 0.13281-0.69453 0.0425-0.56284-0.23881-1.4945-0.74414-2.6712 1.157-2.2732 2.9888-6.2272 2.326-7.3753-0.60212-1.0429-4.756-1.1406-7.0006-1.1172-0.25831-0.42009-0.51451-0.83638-0.77979-1.2604 1.1348-2.2818 3.259-6.9145 2.4986-8.2315-0.85243-1.4765-7.1725-1.7568-9.0863-1.8087-0.0527-0.0774-0.10677-0.15701-0.15865-0.23306 1.9544-1.0021 10.336-5.3929 10.639-7.1536 0.27021-1.5725-5.2359-6.2342-7.9763-8.4444-0.0322-0.98027-0.10388-1.9503-0.21239-2.9094 2.7402-3.6703 8.9804-12.269 8.3762-13.724-0.78309-1.886-11.23-3.2182-15.204-3.6613-0.46882-0.6359-0.95819-1.2556-1.4666-1.8588 0.36516-4.3177 1.1956-16.086-0.54467-17.205-1.4954-0.96142-11.73 4.5197-15.087 6.365-0.54444-0.19299-1.095-0.37316-1.6511-0.54054-1.4533-3.3613-5.9887-13.329-8.7436-13.329z" style="fill-rule:evenodd;filter:url(#c);opacity:.2"/>
 <path d="m84.862 87.192s4.1401-7.3953 3.1966-9.0296c-0.82945-1.4366-8.4438-1.0846-8.4438-1.0846s4.1831-7.7568 3.1622-9.525c-1.0051-1.7408-9.675-1.8226-9.675-1.8226s10.726-5.3798 11.068-7.3726c0.35889-2.0885-9.4824-9.6358-9.4824-9.6358s10.44-13.588 9.6704-15.442c-0.96601-2.3265-16.818-3.8351-16.818-3.8351s1.7333-17.52-0.39677-18.89c-1.7897-1.1506-16.236 6.9992-16.236 6.9992s-5.9396-14.504-9.2468-14.504c-3.3281 0-10.359 14.525-10.359 14.525s-11.671-8.0128-13.832-6.765c-1.9105 1.103-1.2591 15.252-1.2591 15.252z" style="fill-rule:evenodd;fill:#455a64"/>
 <g transform="matrix(1 0 0 1 -248.54 -86.05)" style="fill:#80cbc4">
  <path d="m318.85 146.9s17.935 25.313 16.04 27.783c-1.8402 2.3983-36.52-9.7855-36.52-9.7855z" style="fill-rule:evenodd;fill:#80cbc4"/>
  <path d="m252.19 137.18c0 17.981 13.079 32.907 30.242 35.785 1.9655 0.32953 3.9846 0.50105 6.0437 0.50105 2.131 0 4.2192-0.18371 6.2494-0.53614 17.062-2.9619 30.036-17.841 30.036-35.75-1e-5 -20.04-16.246-36.286-36.286-36.286-20.04 0-36.286 16.246-36.286 36.286z" style="fill-rule:evenodd;fill:#80cbc4"/>
 </g>
 <path transform="matrix(.26458 0 0 .26458 -1.0515e-7 -4.0036e-6)" d="m154.92 58.094c-75.742 0-137.14 61.401-137.14 137.14 0 7.2743 0.5712 14.415 1.6622 21.383 5.3001 25.557 25.275 35.482 25.275 35.482 4.1853 3.4348 9.3874 6.9409 15.395 10.402l-0.4942-0.016s12.592 70.158 35.693 69.58c17.472-0.4375 31.183-35.725 53.398-35.016 22.195 0.7089 31.205 34.586 53.293 34.82 12.755 0.1352 23.838-21.709 30.84-39.789 2.2165-0.453 4.4217-0.9448 6.6114-1.4825 21 19.858 69.537 40.06 90.221 46.912 0.2827-0.15 0.5101-0.3254 0.6679-0.5312 5.2752-6.8747-30.062-60.51-49.07-88.332 6.9486-16.416 10.793-34.466 10.793-53.414 0-75.742-61.401-137.14-137.14-137.14z" style="fill-rule:evenodd;filter:url(#b);opacity:.15"/>
 <path d="m39.931 15.378c-20.04 0-36.286 16.246-36.286 36.286 0 1.9247 0.15113 3.8139 0.43979 5.6576 1.4023 6.7619 6.6874 9.3881 6.6874 9.3881 1.1074 0.90879 2.4838 1.8365 4.0732 2.7523l-0.13076-4e-3s3.3315 18.563 9.4439 18.41c4.6229-0.11575 8.2505-9.4523 14.128-9.2646 5.8725 0.18757 8.2564 9.1509 14.101 9.2129 3.3748 0.0358 6.3071-5.7438 8.1597-10.528 0.58645-0.11985 1.1699-0.24997 1.7493-0.39225 5.5562 5.2543 18.398 10.599 23.871 12.412 0.0748-0.0397 0.13496-0.0861 0.17672-0.14055 1.3957-1.8189-7.9538-16.01-12.983-23.371 1.8385-4.3435 2.8557-9.1192 2.8557-14.133 0-20.04-16.246-36.286-36.286-36.286z" style="fill-rule:evenodd;fill:#00796b"/>
 <path d="m39.931 14.312c-20.04 0-36.286 16.246-36.286 36.286 0 1.9247 0.15113 3.8139 0.43979 5.6576 1.4023 6.7619 6.6874 9.3881 6.6874 9.3881 1.1074 0.9088 2.4838 1.8364 4.0732 2.7523l-0.13076-4e-3s3.3315 18.563 9.4439 18.41c4.6229-0.11576 8.2505-9.4523 14.128-9.2646 5.8725 0.18756 8.2564 9.1509 14.101 9.2129 3.3748 0.0358 6.3071-5.7438 8.1597-10.528 0.58645-0.11986 1.1699-0.24998 1.7493-0.39224 5.5562 5.2542 18.398 10.599 23.871 12.412 0.0748-0.0397 0.13496-0.0861 0.17672-0.14055 1.3957-1.8189-7.9538-16.01-12.983-23.371 1.8385-4.3435 2.8557-9.1192 2.8557-14.133 0-20.04-16.246-36.286-36.286-36.286z" style="fill-rule:evenodd;fill:#4db6ac"/>
 <path d="m39.931 14.841c-20.04 0-36.286 16.246-36.286 36.286 0 1.9247 0.15113 3.8139 0.43979 5.6576 1.4023 6.7619 6.6874 9.3881 6.6874 9.3881 1.1074 0.90879 2.4838 1.8364 4.0732 2.7523l-0.13076-4e-3s3.3315 18.563 9.4439 18.41c4.6229-0.11575 8.2505-9.4523 14.128-9.2646 5.8724 0.18756 8.2564 9.1509 14.1 9.2129 3.3748 0.0358 6.3071-5.7438 8.1597-10.528 0.58645-0.11985 1.1699-0.24997 1.7493-0.39224 5.5562 5.2542 18.398 10.599 23.871 12.412 0.0748-0.0397 0.13497-0.0861 0.17672-0.14055 1.3957-1.8189-7.9538-16.01-12.983-23.371 1.8385-4.3435 2.8557-9.1192 2.8557-14.133 0-20.04-16.246-36.286-36.286-36.286z" style="fill-rule:evenodd;fill:#009688"/>
 <circle cx="21.58" cy="41.319" r="2.9104" style="fill-rule:evenodd;fill:#eee"/>
 <rect transform="matrix(1 0 0 1 -463.58 -207.17)" x="461.55" y="203.9" width="101.96" height="98.655" clip-path="url(#d)" style="fill-rule:evenodd;fill:url(#a);opacity:.05"/>
</svg>
