<?xml version="1.0" standalone="no"?>
<!DOCTYPE svg PUBLIC "-//W3C//DTD SVG 20010904//EN"
 "http://www.w3.org/TR/2001/REC-SVG-20010904/DTD/svg10.dtd">
<svg version="1.0" xmlns="http://www.w3.org/2000/svg"
 width="3000.000000pt" height="3000.000000pt" viewBox="0 0 3000.000000 3000.000000"
 preserveAspectRatio="xMidYMid meet">
<metadata>
Created by potrace 1.16, written by Peter Selinger 2001-2019
</metadata>
<g transform="translate(0.000000,3000.000000) scale(0.100000,-0.100000)"
fill="#000000" stroke="none">
<path d="M14855 27720 l-11320 -5 -150 -38 c-175 -43 -180 -45 -306 -108 -238
-117 -427 -274 -576 -476 -121 -163 -167 -274 -203 -489 l-21 -124 -5 -11148
c-3 -6131 -5 -11300 -6 -11487 -2 -566 43 -822 186 -1061 180 -302 467 -497
946 -641 l125 -38 11410 -5 c6276 -3 11487 -2 11580 2 134 5 190 12 265 32
219 58 399 147 630 311 115 81 146 114 238 252 120 180 183 313 228 482 l24
93 0 11638 0 11638 -24 93 c-147 561 -475 866 -1130 1046 -131 36 -131 36
-351 37 -121 1 -5314 -1 -11540 -4z m11460 -1030 c88 -5 184 -16 214 -24 202
-55 291 -175 336 -451 13 -79 15 -1439 15 -11298 0 -7670 -4 -11232 -11
-11285 -30 -227 -104 -368 -222 -428 -62 -32 -167 -59 -284 -73 -127 -16
-22435 -16 -22543 -1 -358 51 -472 162 -510 495 -6 60 -10 3849 -10 11355 0
9910 2 11273 15 11334 34 161 190 327 334 357 31 6 63 15 71 20 21 12 22391
11 22595 -1z"/>
<path d="M13930 21707 c0 -6 -930 -5114 -935 -5134 l-5 -23 680 0 c374 0 680
2 680 5 0 3 160 789 355 1747 195 957 355 1744 355 1749 0 5 519 9 1220 9
1077 0 1220 -2 1220 -15 0 -10 -1720 -8885 -1987 -10252 l-16 -83 -698 0 -698
0 -6 -32 c-4 -18 -73 -377 -154 -798 -141 -736 -146 -765 -126 -769 21 -4
4728 20 4733 24 1 1 61 344 132 761 71 417 132 769 135 782 l5 22 -776 0
c-734 0 -776 1 -772 18 3 9 450 2340 993 5180 l989 5162 1247 0 c1183 0 1247
-1 1243 -17 -4 -18 -656 -3344 -669 -3415 l-7 -38 703 0 704 0 468 2553 c257
1403 467 2555 467 2560 0 6 -9480 11 -9480 4z"/>
<path d="M8597 21113 c-53 -324 -97 -594 -97 -600 0 -10 447 -13 2203 -13
l2202 0 98 588 c53 323 97 593 97 600 0 9 -447 12 -2203 12 l-2202 0 -98 -587z"/>
<path d="M7827 16973 c-59 -324 -107 -594 -107 -600 0 -10 443 -13 2183 -13
l2183 0 92 588 c51 323 92 593 92 600 0 9 -440 12 -2168 12 l-2167 0 -108
-587z"/>
<path d="M7067 12833 c-59 -324 -107 -594 -107 -600 0 -10 817 -13 4053 -13
l4053 0 92 588 c51 323 92 593 92 600 0 9 -814 12 -4038 12 l-4037 0 -108
-587z"/>
<path d="M6297 8723 c-53 -324 -97 -594 -97 -600 0 -10 677 -13 3353 -13
l3352 0 98 588 c53 323 97 593 97 600 0 9 -677 12 -3353 12 l-3352 0 -98 -587z"/>
</g>
</svg>
